<mxfile host="app.diagrams.net" modified="2021-09-28T15:31:23.768Z" agent="5.0 (Windows NT 10.0; Win64; x64) AppleWebKit/537.36 (KHTML, like Gecko) Chrome/93.0.4577.82 Safari/537.36" etag="CKJVCJWhFUe1ro4H4771" version="15.3.7" type="github">
  <diagram id="C5RBs43oDa-KdzZeNtuy" name="Page-1">
    <mxGraphModel dx="1021" dy="567" grid="1" gridSize="10" guides="1" tooltips="1" connect="1" arrows="1" fold="1" page="1" pageScale="1" pageWidth="1169" pageHeight="1654" background="#283618" math="0" shadow="0">
      <root>
        <mxCell id="WIyWlLk6GJQsqaUBKTNV-0" />
        <mxCell id="WIyWlLk6GJQsqaUBKTNV-1" parent="WIyWlLk6GJQsqaUBKTNV-0" />
        <mxCell id="LcvHuHoWbDxBW1VOArnz-20" value="theme&lt;br&gt;(white/black)" style="whiteSpace=wrap;html=1;hachureGap=4;pointerEvents=0;fontColor=#FEFAE0;strokeColor=#DDA15E;fillColor=#BC6C25;arcSize=50;" parent="WIyWlLk6GJQsqaUBKTNV-1" vertex="1">
          <mxGeometry x="150" y="230" width="130" height="55" as="geometry" />
        </mxCell>
        <mxCell id="LcvHuHoWbDxBW1VOArnz-49" style="edgeStyle=none;orthogonalLoop=1;jettySize=auto;html=1;fontColor=#FEFAE0;endArrow=open;sourcePerimeterSpacing=8;targetPerimeterSpacing=8;strokeColor=#DDA15E;fillColor=#BC6C25;entryX=0;entryY=0.5;entryDx=0;entryDy=0;exitX=0.5;exitY=1;exitDx=0;exitDy=0;labelBackgroundColor=#283618;" parent="WIyWlLk6GJQsqaUBKTNV-1" source="LcvHuHoWbDxBW1VOArnz-36" target="LcvHuHoWbDxBW1VOArnz-25" edge="1">
          <mxGeometry relative="1" as="geometry">
            <mxPoint x="460" y="590" as="sourcePoint" />
            <mxPoint x="500" y="580" as="targetPoint" />
            <Array as="points">
              <mxPoint x="380" y="590" />
            </Array>
          </mxGeometry>
        </mxCell>
        <mxCell id="LcvHuHoWbDxBW1VOArnz-51" value="" style="edgeStyle=none;orthogonalLoop=1;jettySize=auto;html=1;fontColor=#FEFAE0;endArrow=open;sourcePerimeterSpacing=8;targetPerimeterSpacing=8;strokeColor=#DDA15E;fillColor=#BC6C25;labelBackgroundColor=#283618;" parent="WIyWlLk6GJQsqaUBKTNV-1" source="LcvHuHoWbDxBW1VOArnz-25" target="LcvHuHoWbDxBW1VOArnz-50" edge="1">
          <mxGeometry relative="1" as="geometry" />
        </mxCell>
        <mxCell id="LcvHuHoWbDxBW1VOArnz-25" value="search" style="whiteSpace=wrap;html=1;aspect=fixed;hachureGap=4;pointerEvents=0;fontColor=#FEFAE0;strokeColor=#DDA15E;fillColor=#BC6C25;" parent="WIyWlLk6GJQsqaUBKTNV-1" vertex="1">
          <mxGeometry x="535" y="550" width="50" height="50" as="geometry" />
        </mxCell>
        <mxCell id="LcvHuHoWbDxBW1VOArnz-29" value="" style="html=1;jettySize=auto;orthogonalLoop=1;fontSize=11;endArrow=block;endFill=0;endSize=8;strokeWidth=1;shadow=0;labelBackgroundColor=none;edgeStyle=orthogonalEdgeStyle;strokeColor=#DDA15E;fontColor=#FEFAE0;exitX=1;exitY=0.5;exitDx=0;exitDy=0;" parent="WIyWlLk6GJQsqaUBKTNV-1" source="LcvHuHoWbDxBW1VOArnz-36" target="LcvHuHoWbDxBW1VOArnz-31" edge="1">
          <mxGeometry relative="1" as="geometry">
            <mxPoint x="320" y="395" as="sourcePoint" />
          </mxGeometry>
        </mxCell>
        <mxCell id="LcvHuHoWbDxBW1VOArnz-30" value="" style="edgeStyle=none;orthogonalLoop=1;jettySize=auto;html=1;fontColor=#FEFAE0;endArrow=open;startSize=14;endSize=14;sourcePerimeterSpacing=8;targetPerimeterSpacing=8;strokeColor=#DDA15E;fillColor=#BC6C25;labelBackgroundColor=#283618;" parent="WIyWlLk6GJQsqaUBKTNV-1" source="LcvHuHoWbDxBW1VOArnz-31" target="LcvHuHoWbDxBW1VOArnz-34" edge="1">
          <mxGeometry relative="1" as="geometry" />
        </mxCell>
        <mxCell id="LcvHuHoWbDxBW1VOArnz-31" value="sign-in /&lt;br&gt;sign-up&lt;br&gt;" style="rhombus;whiteSpace=wrap;html=1;shadow=0;fontFamily=Helvetica;fontSize=12;align=center;strokeWidth=1;spacing=6;spacingTop=-4;fillColor=#BC6C25;strokeColor=#DDA15E;fontColor=#FEFAE0;" parent="WIyWlLk6GJQsqaUBKTNV-1" vertex="1">
          <mxGeometry x="430" y="355" width="100" height="80" as="geometry" />
        </mxCell>
        <mxCell id="LcvHuHoWbDxBW1VOArnz-32" value="yes&lt;br&gt;" style="text;html=1;strokeColor=none;fillColor=none;align=center;verticalAlign=middle;whiteSpace=wrap;hachureGap=4;pointerEvents=0;fontColor=#FEFAE0;" parent="WIyWlLk6GJQsqaUBKTNV-1" vertex="1">
          <mxGeometry x="380" y="425" width="40" height="20" as="geometry" />
        </mxCell>
        <mxCell id="LcvHuHoWbDxBW1VOArnz-33" value="" style="edgeStyle=none;orthogonalLoop=1;jettySize=auto;html=1;fontColor=#FEFAE0;endArrow=open;sourcePerimeterSpacing=8;targetPerimeterSpacing=8;strokeColor=#DDA15E;fillColor=#BC6C25;entryX=1;entryY=0;entryDx=0;entryDy=0;labelBackgroundColor=#283618;" parent="WIyWlLk6GJQsqaUBKTNV-1" source="LcvHuHoWbDxBW1VOArnz-34" target="LcvHuHoWbDxBW1VOArnz-52" edge="1">
          <mxGeometry relative="1" as="geometry">
            <mxPoint x="530" y="510" as="targetPoint" />
          </mxGeometry>
        </mxCell>
        <mxCell id="LcvHuHoWbDxBW1VOArnz-45" value="" style="edgeStyle=none;orthogonalLoop=1;jettySize=auto;html=1;fontColor=#FEFAE0;endArrow=open;sourcePerimeterSpacing=8;targetPerimeterSpacing=8;strokeColor=#DDA15E;fillColor=#BC6C25;entryX=0.5;entryY=0;entryDx=0;entryDy=0;exitX=1;exitY=0.5;exitDx=0;exitDy=0;labelBackgroundColor=#283618;" parent="WIyWlLk6GJQsqaUBKTNV-1" source="LcvHuHoWbDxBW1VOArnz-34" target="LcvHuHoWbDxBW1VOArnz-34" edge="1">
          <mxGeometry relative="1" as="geometry">
            <mxPoint x="718" y="360" as="targetPoint" />
            <Array as="points">
              <mxPoint x="760" y="390" />
              <mxPoint x="710" y="310" />
            </Array>
          </mxGeometry>
        </mxCell>
        <mxCell id="LcvHuHoWbDxBW1VOArnz-34" value="sign-up" style="whiteSpace=wrap;html=1;shadow=0;fontColor=#FEFAE0;strokeColor=#DDA15E;strokeWidth=1;fillColor=#BC6C25;spacing=6;spacingTop=-4;" parent="WIyWlLk6GJQsqaUBKTNV-1" vertex="1">
          <mxGeometry x="600" y="365" width="110" height="60" as="geometry" />
        </mxCell>
        <mxCell id="LcvHuHoWbDxBW1VOArnz-35" value="" style="edgeStyle=none;orthogonalLoop=1;jettySize=auto;html=1;fontColor=#FEFAE0;endArrow=open;startSize=14;endSize=14;sourcePerimeterSpacing=8;targetPerimeterSpacing=8;strokeColor=#DDA15E;fillColor=#BC6C25;labelBackgroundColor=#283618;" parent="WIyWlLk6GJQsqaUBKTNV-1" source="LcvHuHoWbDxBW1VOArnz-36" target="LcvHuHoWbDxBW1VOArnz-40" edge="1">
          <mxGeometry relative="1" as="geometry" />
        </mxCell>
        <mxCell id="LcvHuHoWbDxBW1VOArnz-46" style="edgeStyle=none;orthogonalLoop=1;jettySize=auto;html=1;exitX=0.5;exitY=0;exitDx=0;exitDy=0;fontColor=#FEFAE0;endArrow=open;sourcePerimeterSpacing=8;targetPerimeterSpacing=8;strokeColor=#DDA15E;fillColor=#BC6C25;entryX=0.5;entryY=1;entryDx=0;entryDy=0;labelBackgroundColor=#283618;" parent="WIyWlLk6GJQsqaUBKTNV-1" source="LcvHuHoWbDxBW1VOArnz-36" target="LcvHuHoWbDxBW1VOArnz-20" edge="1">
          <mxGeometry relative="1" as="geometry">
            <mxPoint x="275" y="310" as="targetPoint" />
          </mxGeometry>
        </mxCell>
        <mxCell id="LcvHuHoWbDxBW1VOArnz-53" style="edgeStyle=none;orthogonalLoop=1;jettySize=auto;html=1;exitX=0;exitY=0.5;exitDx=0;exitDy=0;fontColor=#FEFAE0;endArrow=open;sourcePerimeterSpacing=8;targetPerimeterSpacing=8;strokeColor=#DDA15E;fillColor=#BC6C25;entryX=0.75;entryY=1;entryDx=0;entryDy=0;labelBackgroundColor=#283618;" parent="WIyWlLk6GJQsqaUBKTNV-1" source="LcvHuHoWbDxBW1VOArnz-52" target="LcvHuHoWbDxBW1VOArnz-36" edge="1">
          <mxGeometry relative="1" as="geometry">
            <mxPoint x="380" y="500" as="targetPoint" />
          </mxGeometry>
        </mxCell>
        <mxCell id="LcvHuHoWbDxBW1VOArnz-54" style="edgeStyle=none;orthogonalLoop=1;jettySize=auto;html=1;exitX=0.5;exitY=1;exitDx=0;exitDy=0;fontColor=#FEFAE0;endArrow=open;sourcePerimeterSpacing=8;targetPerimeterSpacing=8;strokeColor=#DDA15E;fillColor=#BC6C25;labelBackgroundColor=#283618;" parent="WIyWlLk6GJQsqaUBKTNV-1" source="LcvHuHoWbDxBW1VOArnz-36" edge="1">
          <mxGeometry relative="1" as="geometry">
            <mxPoint x="290" y="530" as="targetPoint" />
          </mxGeometry>
        </mxCell>
        <mxCell id="LcvHuHoWbDxBW1VOArnz-36" value="LANDING PAGE" style="whiteSpace=wrap;html=1;hachureGap=4;pointerEvents=0;fontColor=#FEFAE0;strokeColor=#DDA15E;fillColor=#BC6C25;" parent="WIyWlLk6GJQsqaUBKTNV-1" vertex="1">
          <mxGeometry x="200" y="340" width="130" height="110" as="geometry" />
        </mxCell>
        <mxCell id="LcvHuHoWbDxBW1VOArnz-37" value="no&lt;br&gt;" style="text;html=1;strokeColor=none;fillColor=none;align=center;verticalAlign=middle;whiteSpace=wrap;hachureGap=4;pointerEvents=0;fontColor=#FEFAE0;" parent="WIyWlLk6GJQsqaUBKTNV-1" vertex="1">
          <mxGeometry x="530" y="375" width="40" height="20" as="geometry" />
        </mxCell>
        <mxCell id="LcvHuHoWbDxBW1VOArnz-38" value="yes&lt;br&gt;" style="text;html=1;align=center;verticalAlign=middle;resizable=0;points=[];autosize=1;strokeColor=none;fillColor=none;fontColor=#FEFAE0;" parent="WIyWlLk6GJQsqaUBKTNV-1" vertex="1">
          <mxGeometry x="575" y="435" width="30" height="20" as="geometry" />
        </mxCell>
        <mxCell id="LcvHuHoWbDxBW1VOArnz-39" value="no&lt;br&gt;" style="text;html=1;align=center;verticalAlign=middle;resizable=0;points=[];autosize=1;strokeColor=none;fillColor=none;fontColor=#FEFAE0;" parent="WIyWlLk6GJQsqaUBKTNV-1" vertex="1">
          <mxGeometry x="730" y="325" width="30" height="20" as="geometry" />
        </mxCell>
        <mxCell id="8aZUzSBgcshO3j6YFhV9-7" style="edgeStyle=none;orthogonalLoop=1;jettySize=auto;html=1;exitX=0.75;exitY=1;exitDx=0;exitDy=0;endArrow=open;startSize=14;endSize=14;sourcePerimeterSpacing=8;targetPerimeterSpacing=8;strokeColor=#DDA15E;entryX=0.5;entryY=0;entryDx=0;entryDy=0;labelBackgroundColor=#283618;fontColor=#FEFAE0;" parent="WIyWlLk6GJQsqaUBKTNV-1" source="LcvHuHoWbDxBW1VOArnz-40" target="8aZUzSBgcshO3j6YFhV9-8" edge="1">
          <mxGeometry relative="1" as="geometry">
            <mxPoint x="160" y="580" as="targetPoint" />
          </mxGeometry>
        </mxCell>
        <mxCell id="LcvHuHoWbDxBW1VOArnz-40" value="profile&lt;br&gt;" style="whiteSpace=wrap;html=1;hachureGap=4;pointerEvents=0;fontColor=#FEFAE0;strokeColor=#DDA15E;fillColor=#BC6C25;arcSize=50;" parent="WIyWlLk6GJQsqaUBKTNV-1" vertex="1">
          <mxGeometry x="40" y="480" width="130" height="55" as="geometry" />
        </mxCell>
        <mxCell id="LcvHuHoWbDxBW1VOArnz-41" value="" style="endArrow=classic;html=1;fontColor=#FEFAE0;startSize=14;endSize=14;sourcePerimeterSpacing=8;targetPerimeterSpacing=8;strokeColor=#DDA15E;fillColor=#BC6C25;exitX=0.5;exitY=1;exitDx=0;exitDy=0;entryX=0.954;entryY=0.982;entryDx=0;entryDy=0;entryPerimeter=0;labelBackgroundColor=#283618;" parent="WIyWlLk6GJQsqaUBKTNV-1" source="LcvHuHoWbDxBW1VOArnz-31" target="LcvHuHoWbDxBW1VOArnz-36" edge="1">
          <mxGeometry width="50" height="50" relative="1" as="geometry">
            <mxPoint x="430" y="505" as="sourcePoint" />
            <mxPoint x="480" y="455" as="targetPoint" />
            <Array as="points">
              <mxPoint x="430" y="448" />
            </Array>
          </mxGeometry>
        </mxCell>
        <mxCell id="LcvHuHoWbDxBW1VOArnz-42" value="links" style="whiteSpace=wrap;html=1;aspect=fixed;hachureGap=4;pointerEvents=0;fontColor=#FEFAE0;strokeColor=#DDA15E;fillColor=#BC6C25;" parent="WIyWlLk6GJQsqaUBKTNV-1" vertex="1">
          <mxGeometry x="30" y="585" width="50" height="50" as="geometry" />
        </mxCell>
        <mxCell id="LcvHuHoWbDxBW1VOArnz-43" value="" style="endArrow=classic;startArrow=classic;html=1;fontColor=#FEFAE0;sourcePerimeterSpacing=8;targetPerimeterSpacing=8;strokeColor=#DDA15E;fillColor=#BC6C25;exitX=0.5;exitY=0;exitDx=0;exitDy=0;entryX=0.5;entryY=1;entryDx=0;entryDy=0;labelBackgroundColor=#283618;" parent="WIyWlLk6GJQsqaUBKTNV-1" source="LcvHuHoWbDxBW1VOArnz-42" target="LcvHuHoWbDxBW1VOArnz-40" edge="1">
          <mxGeometry width="50" height="50" relative="1" as="geometry">
            <mxPoint x="430" y="605" as="sourcePoint" />
            <mxPoint x="125" y="530" as="targetPoint" />
          </mxGeometry>
        </mxCell>
        <mxCell id="8aZUzSBgcshO3j6YFhV9-0" style="edgeStyle=none;orthogonalLoop=1;jettySize=auto;html=1;exitX=0.5;exitY=1;exitDx=0;exitDy=0;entryX=0.5;entryY=0;entryDx=0;entryDy=0;endArrow=open;startSize=14;endSize=14;sourcePerimeterSpacing=8;targetPerimeterSpacing=8;fillColor=#BC6C25;strokeColor=#DDA15E;labelBackgroundColor=#283618;fontColor=#FEFAE0;" parent="WIyWlLk6GJQsqaUBKTNV-1" source="LcvHuHoWbDxBW1VOArnz-50" target="LcvHuHoWbDxBW1VOArnz-55" edge="1">
          <mxGeometry relative="1" as="geometry" />
        </mxCell>
        <mxCell id="LcvHuHoWbDxBW1VOArnz-50" value="using tags,&lt;br&gt;search specific skilled&lt;br&gt;individuals." style="shape=hexagon;perimeter=hexagonPerimeter2;whiteSpace=wrap;html=1;fixedSize=1;fontColor=#FEFAE0;strokeColor=#DDA15E;fillColor=#BC6C25;hachureGap=4;" parent="WIyWlLk6GJQsqaUBKTNV-1" vertex="1">
          <mxGeometry x="728" y="490" width="130" height="85" as="geometry" />
        </mxCell>
        <mxCell id="LcvHuHoWbDxBW1VOArnz-52" value="Beginers guide" style="whiteSpace=wrap;html=1;hachureGap=4;pointerEvents=0;fontColor=#FEFAE0;strokeColor=#DDA15E;fillColor=#BC6C25;arcSize=0;" parent="WIyWlLk6GJQsqaUBKTNV-1" vertex="1">
          <mxGeometry x="410" y="465" width="120" height="65" as="geometry" />
        </mxCell>
        <mxCell id="8aZUzSBgcshO3j6YFhV9-2" value="" style="edgeStyle=none;orthogonalLoop=1;jettySize=auto;html=1;endArrow=open;startSize=14;endSize=14;sourcePerimeterSpacing=8;targetPerimeterSpacing=8;strokeColor=#DDA15E;labelBackgroundColor=#283618;fontColor=#FEFAE0;" parent="WIyWlLk6GJQsqaUBKTNV-1" source="LcvHuHoWbDxBW1VOArnz-55" target="8aZUzSBgcshO3j6YFhV9-1" edge="1">
          <mxGeometry relative="1" as="geometry" />
        </mxCell>
        <mxCell id="LcvHuHoWbDxBW1VOArnz-55" value="show skilled individuals desc.&lt;br&gt;with ratings and work experience." style="whiteSpace=wrap;html=1;hachureGap=4;pointerEvents=0;fontColor=#FEFAE0;strokeColor=#DDA15E;fillColor=#BC6C25;arcSize=50;" parent="WIyWlLk6GJQsqaUBKTNV-1" vertex="1">
          <mxGeometry x="760" y="660" width="168" height="80" as="geometry" />
        </mxCell>
        <mxCell id="8aZUzSBgcshO3j6YFhV9-4" value="" style="edgeStyle=none;orthogonalLoop=1;jettySize=auto;html=1;endArrow=open;startSize=14;endSize=14;sourcePerimeterSpacing=8;targetPerimeterSpacing=8;strokeColor=#DDA15E;labelBackgroundColor=#283618;fontColor=#FEFAE0;" parent="WIyWlLk6GJQsqaUBKTNV-1" source="8aZUzSBgcshO3j6YFhV9-1" target="8aZUzSBgcshO3j6YFhV9-3" edge="1">
          <mxGeometry relative="1" as="geometry" />
        </mxCell>
        <mxCell id="8aZUzSBgcshO3j6YFhV9-1" value="by selecting individuals&lt;br&gt;, can analyse." style="whiteSpace=wrap;html=1;fontColor=#FEFAE0;strokeColor=#DDA15E;fillColor=#BC6C25;arcSize=50;hachureGap=4;" parent="WIyWlLk6GJQsqaUBKTNV-1" vertex="1">
          <mxGeometry x="728" y="810" width="165" height="100" as="geometry" />
        </mxCell>
        <mxCell id="8aZUzSBgcshO3j6YFhV9-9" style="edgeStyle=none;orthogonalLoop=1;jettySize=auto;html=1;exitX=1;exitY=0;exitDx=0;exitDy=0;entryX=0.169;entryY=1.012;entryDx=0;entryDy=0;entryPerimeter=0;endArrow=open;startSize=14;endSize=14;sourcePerimeterSpacing=8;targetPerimeterSpacing=8;strokeColor=#DDA15E;labelBackgroundColor=#283618;fontColor=#FEFAE0;" parent="WIyWlLk6GJQsqaUBKTNV-1" source="8aZUzSBgcshO3j6YFhV9-3" target="LcvHuHoWbDxBW1VOArnz-50" edge="1">
          <mxGeometry relative="1" as="geometry" />
        </mxCell>
        <mxCell id="8aZUzSBgcshO3j6YFhV9-3" value="by analysing&lt;br&gt;&amp;nbsp;they can proceed / go back to&amp;nbsp; previous&lt;br&gt;searched&amp;nbsp;page." style="rhombus;whiteSpace=wrap;html=1;fontColor=#FEFAE0;strokeColor=#DDA15E;fillColor=#BC6C25;arcSize=0;hachureGap=4;" parent="WIyWlLk6GJQsqaUBKTNV-1" vertex="1">
          <mxGeometry x="550" y="715" width="137.5" height="130" as="geometry" />
        </mxCell>
        <mxCell id="8aZUzSBgcshO3j6YFhV9-5" value="interacting page." style="whiteSpace=wrap;html=1;aspect=fixed;hachureGap=4;pointerEvents=0;fillColor=#BC6C25;strokeColor=#DDA15E;fontColor=#FEFAE0;" parent="WIyWlLk6GJQsqaUBKTNV-1" vertex="1">
          <mxGeometry x="440" y="660" width="80" height="80" as="geometry" />
        </mxCell>
        <mxCell id="8aZUzSBgcshO3j6YFhV9-6" value="" style="endArrow=classic;html=1;startSize=14;endSize=14;sourcePerimeterSpacing=8;targetPerimeterSpacing=8;strokeColor=#DDA15E;exitX=0;exitY=0;exitDx=0;exitDy=0;entryX=1;entryY=0.6;entryDx=0;entryDy=0;entryPerimeter=0;labelBackgroundColor=#283618;fontColor=#FEFAE0;" parent="WIyWlLk6GJQsqaUBKTNV-1" source="8aZUzSBgcshO3j6YFhV9-3" target="8aZUzSBgcshO3j6YFhV9-5" edge="1">
          <mxGeometry width="50" height="50" relative="1" as="geometry">
            <mxPoint x="220" y="840" as="sourcePoint" />
            <mxPoint x="270" y="790" as="targetPoint" />
          </mxGeometry>
        </mxCell>
        <mxCell id="8aZUzSBgcshO3j6YFhV9-13" style="edgeStyle=none;orthogonalLoop=1;jettySize=auto;html=1;exitX=0;exitY=0;exitDx=0;exitDy=0;endArrow=open;startSize=14;endSize=14;sourcePerimeterSpacing=8;targetPerimeterSpacing=8;strokeColor=#DDA15E;labelBackgroundColor=#283618;fontColor=#FEFAE0;" parent="WIyWlLk6GJQsqaUBKTNV-1" source="8aZUzSBgcshO3j6YFhV9-8" edge="1">
          <mxGeometry relative="1" as="geometry">
            <mxPoint x="270" y="860" as="targetPoint" />
          </mxGeometry>
        </mxCell>
        <mxCell id="8aZUzSBgcshO3j6YFhV9-8" value="&lt;font color=&quot;#ffffff&quot;&gt;Projects done&lt;br&gt;, skills,etc.&lt;br&gt;&lt;/font&gt;" style="whiteSpace=wrap;html=1;aspect=fixed;hachureGap=4;pointerEvents=0;strokeColor=#DDA15E;fillColor=#BC6C25;fontColor=#FEFAE0;" parent="WIyWlLk6GJQsqaUBKTNV-1" vertex="1">
          <mxGeometry x="30" y="665" width="80" height="80" as="geometry" />
        </mxCell>
        <mxCell id="8aZUzSBgcshO3j6YFhV9-18" value="&lt;font color=&quot;#ffffff&quot;&gt;no&lt;br&gt;&lt;br&gt;&lt;/font&gt;" style="text;html=1;align=center;verticalAlign=middle;whiteSpace=wrap;hachureGap=4;pointerEvents=0;fontColor=#FEFAE0;" parent="WIyWlLk6GJQsqaUBKTNV-1" vertex="1">
          <mxGeometry x="635" y="700" width="40" height="20" as="geometry" />
        </mxCell>
      </root>
    </mxGraphModel>
  </diagram>
</mxfile>
